<svg width="63" height="63" viewBox="0 0 63 63" fill="none" xmlns="http://www.w3.org/2000/svg">
<g filter="url(#filter0_d_0_1)">
<rect x="7" width="49" height="49" rx="24.5" fill="#22333B"/>
</g>
<path d="M26.5315 24.1963H36.4107C40.0175 24.1963 42.9414 27.1202 42.9414 30.727C42.9414 34.3338 40.0175 37.2577 36.4107 37.2577H26.5315C22.9247 37.2577 20.0008 34.3338 20.0008 30.727C20.0008 27.1202 22.9247 24.1963 26.5315 24.1963Z" fill="#F2F4F3"/>
<path d="M31.4575 22.9757C28.1505 22.9757 25.4696 20.2948 25.4696 16.9878C25.4696 13.6809 28.1505 11 31.4575 11C34.7645 11 37.4453 13.6809 37.4453 16.9878C37.4453 20.2948 34.7645 22.9757 31.4575 22.9757Z" fill="#F2F4F3"/>
<defs>
<filter id="filter0_d_0_1" x="0.5" y="0" width="62" height="62.5" filterUnits="userSpaceOnUse" color-interpolation-filters="sRGB">
<feFlood flood-opacity="0" result="BackgroundImageFix"/>
<feColorMatrix in="SourceAlpha" type="matrix" values="0 0 0 0 0 0 0 0 0 0 0 0 0 0 0 0 0 0 127 0" result="hardAlpha"/>
<feMorphology radius="6" operator="erode" in="SourceAlpha" result="effect1_dropShadow_0_1"/>
<feOffset dy="7"/>
<feGaussianBlur stdDeviation="6.25"/>
<feComposite in2="hardAlpha" operator="out"/>
<feColorMatrix type="matrix" values="0 0 0 0 0 0 0 0 0 0 0 0 0 0 0 0 0 0 0.25 0"/>
<feBlend mode="normal" in2="BackgroundImageFix" result="effect1_dropShadow_0_1"/>
<feBlend mode="normal" in="SourceGraphic" in2="effect1_dropShadow_0_1" result="shape"/>
</filter>
</defs>
</svg>
