<svg width="24" height="23" viewBox="0 0 24 23" fill="none" xmlns="http://www.w3.org/2000/svg">
<path d="M8.56353 9.83008H2.5184C1.12753 9.83008 0 10.9576 0 12.3485V20.4365C0 21.8274 1.12753 22.9549 2.5184 22.9549H8.56353C9.9544 22.9549 11.0819 21.8274 11.0819 20.4365V12.3485C11.0819 10.9576 9.9544 9.83008 8.56353 9.83008Z" fill="#F2F4F3"/>
<path d="M8.56353 0H2.5184C1.12753 0 0 1.12753 0 2.5184V5.62459C0 7.01547 1.12753 8.143 2.5184 8.143H8.56353C9.9544 8.143 11.0819 7.01547 11.0819 5.62459V2.5184C11.0819 1.12753 9.9544 0 8.56353 0Z" fill="#F2F4F3"/>
<path d="M21.3809 0.0429688H15.3358C13.9449 0.0429688 12.8174 1.1705 12.8174 2.56137V10.6494C12.8174 12.0403 13.9449 13.1678 15.3358 13.1678H21.3809C22.7718 13.1678 23.8993 12.0403 23.8993 10.6494V2.56137C23.8993 1.1705 22.7718 0.0429688 21.3809 0.0429688Z" fill="#F2F4F3"/>
<path d="M21.3809 14.8564H15.3358C13.9449 14.8564 12.8174 15.984 12.8174 17.3748V20.481C12.8174 21.8719 13.9449 22.9994 15.3358 22.9994H21.3809C22.7718 22.9994 23.8993 21.8719 23.8993 20.481V17.3748C23.8993 15.984 22.7718 14.8564 21.3809 14.8564Z" fill="#F2F4F3"/>
</svg>
