<svg width="24" height="24" viewBox="0 0 25 24" fill="none" xmlns="http://www.w3.org/2000/svg">
<path d="M16.1907 6.5162C16.1497 6.98481 16.5501 7.38745 17.0574 7.38745H22.2553C22.7763 7.43522 22.8672 7.49437 23.1743 7.66498C24.2549 8.26325 24.8554 9.39383 24.7098 10.554C24.3163 13.675 23.9683 16.8325 23.4268 19.933C23.1584 21.4731 22.4692 22.9972 20.5287 23.1269C19.7303 23.1814 18.9091 23.1883 18.081 23.1792C14.2935 23.1291 10.5355 22.5445 6.92766 21.4731C6.09508 21.2251 5.5332 20.5085 5.5332 19.6964L5.54913 11.5322C5.5514 9.83515 6.22247 8.19728 7.43267 6.92567L7.45087 6.90519C9.41858 4.84194 11.5455 2.53984 13.6133 0.58805C13.9136 0.303699 14.132 0.0466457 14.6006 0.00569912C15.1852 -0.0443467 15.7858 0.240004 16.1748 0.669943C16.4341 0.956569 16.5683 1.32509 16.5637 1.70043C16.5433 3.30872 16.3294 4.91246 16.1884 6.5162H16.1907Z" fill="#D7F75B"/>
<path d="M4.26072 10.1182V20.0728C4.26072 20.6347 3.76936 21.0919 3.16426 21.0919H1.09646C0.491359 21.0896 0 20.6347 0 20.0728V10.1182C0 9.55636 0.491359 9.09912 1.09646 9.09912H3.16426C3.76936 9.09912 4.26072 9.55408 4.26072 10.1182Z" fill="#D7F75B"/>
</svg>
