<svg width="29" height="24" viewBox="0 0 29 24" fill="none" xmlns="http://www.w3.org/2000/svg">
<path d="M18.8561 6.67747C18.81 7.15767 19.2613 7.57028 19.8331 7.57028H25.6923C26.2795 7.61923 26.3821 7.67984 26.7283 7.85467C27.9463 8.46775 28.6232 9.62631 28.4591 10.8152C28.0155 14.0135 27.6232 17.249 27.0129 20.4263C26.7103 22.0045 25.9334 23.5663 23.7461 23.6992C22.846 23.7551 21.9204 23.7621 20.987 23.7528C16.7176 23.7015 12.4815 23.1024 8.41464 22.0045C7.47613 21.7504 6.84277 21.0161 6.84277 20.1839L6.86072 11.8176C6.86329 10.0785 7.61973 8.40015 8.98389 7.09706L9.00441 7.07608C11.2225 4.96177 13.62 2.60269 15.9509 0.602603C16.2893 0.311215 16.5355 0.0478001 17.0637 0.00584016C17.7227 -0.0454442 18.3997 0.245944 18.8382 0.686523C19.1305 0.980242 19.2818 1.35788 19.2767 1.74251C19.2536 3.39061 19.0125 5.03404 18.8536 6.67747H18.8561Z" fill="#F2F4F3"/>
<path d="M5.40825 10.3681V20.569C5.40825 21.1448 4.85438 21.6133 4.17229 21.6133H1.84142C1.15934 21.611 0.605469 21.1448 0.605469 20.569V10.3681C0.605469 9.79228 1.15934 9.32373 1.84142 9.32373H4.17229C4.85438 9.32373 5.40825 9.78995 5.40825 10.3681Z" fill="#F2F4F3"/>
</svg>
