<svg width="49" height="49" viewBox="0 0 49 49" fill="none" xmlns="http://www.w3.org/2000/svg">
<rect width="49" height="49" rx="24.5" fill="#8C3EBD"/>
<g transform="translate(6.5, 13.5)">
    <path d="M27.9527 12.0231L19.9105 15.0935C18.807 15.514 17.5795 15.5257 16.4685 15.1217L7.84356 11.9926C7.24095 11.7741 6.59619 12.1946 6.59619 12.8054V17.4051C6.59619 17.7621 6.82682 18.084 7.17648 18.2155L16.4685 21.69C17.577 22.1034 18.8119 22.1058 19.9204 21.69L28.6322 18.4387C28.9843 18.3072 29.2149 17.9877 29.2149 17.6282V12.8289C29.2149 12.2134 28.5578 11.7905 27.9527 12.0208V12.0231Z" fill="#F2F4F3"/>
    <path d="M35.4518 6.37091L19.2484 0.248965C18.3854 -0.0775703 17.4257 -0.0822686 16.5578 0.23487L0.557792 6.09371C-0.188643 6.36621 -0.186164 7.36696 0.562751 7.63711L16.9025 13.5312C17.7382 13.8319 18.6607 13.8366 19.4964 13.5406L32.7884 8.84928V16.1082C32.7884 16.2139 32.8231 16.3126 32.8827 16.3925C32.9794 16.524 32.9521 16.7049 32.8182 16.8036C32.4586 17.0737 32.2354 17.5036 32.2751 17.9805C32.3296 18.6477 32.9025 19.1856 33.6068 19.2326C34.4474 19.289 35.1492 18.6571 35.1492 17.8725C35.1492 17.4402 34.936 17.0526 34.6037 16.8036C34.4698 16.7049 34.44 16.5217 34.5392 16.3901C34.5987 16.3103 34.6334 16.2116 34.6334 16.1059V8.19387L35.4344 7.91196C36.1833 7.64886 36.1957 6.65046 35.4518 6.36856V6.37091Z" fill="#F2F4F3"/>
</g>
</svg>