<svg width="49" height="49" viewBox="0 0 49 49" fill="none" xmlns="http://www.w3.org/2000/svg">
<rect width="49" height="49" rx="24.5" fill="#155F56"/>
<g transform="translate(-6, 0)">
    <path d="M17.3904 26.3924C18.2857 28.4465 20.3002 29.4501 24.251 28.6428C24.3751 28.6152 24.4614 28.7617 24.3751 28.8612C21.716 31.9604 21.5542 34.2522 22.8406 36.0769C23.5876 37.1385 24.7661 37.8352 26.0363 37.9734C28.2207 38.2084 30.0815 36.9145 31.3786 32.9888C31.4164 32.8699 31.5863 32.8699 31.6214 32.9888C32.9185 36.9145 34.7793 38.2084 36.9637 37.9734C38.2366 37.8352 39.4124 37.1385 40.1594 36.0769C41.4458 34.255 41.284 31.9631 38.6249 28.8612C38.5386 28.7617 38.6249 28.6152 38.749 28.6428C42.6998 29.4501 44.717 28.4465 45.6096 26.3924C46.1301 25.1953 46.1301 23.8047 45.6096 22.6077C44.717 20.5508 42.6998 19.5472 38.749 20.3573C38.6249 20.3794 38.5386 20.2329 38.6249 20.1389C41.284 17.0342 41.4458 14.7479 40.1594 12.9232C39.4124 11.8616 38.2339 11.1622 36.9637 11.0267C34.7793 10.7917 32.9185 12.08 31.6214 16.0058C31.5836 16.1302 31.4137 16.1302 31.3786 16.0058C30.0815 12.0828 28.2207 10.7945 26.0363 11.0295C24.7634 11.1649 23.5876 11.8644 22.8406 12.926C21.5542 14.7479 21.716 17.037 24.3751 20.1416C24.4614 20.2384 24.3751 20.3849 24.251 20.36C20.3002 19.5472 18.2857 20.5536 17.3904 22.6104C16.8699 23.8075 16.8699 25.1981 17.3904 26.3952V26.3924ZM31.5027 21.9995C32.8457 21.9995 33.9379 23.1191 33.9379 24.4987C33.9379 25.8782 32.8457 26.9951 31.5027 26.9951C30.1597 26.9951 29.0648 25.8754 29.0648 24.4987C29.0648 23.1219 30.157 21.9995 31.5027 21.9995Z" fill="#F2F4F3"/>
</g>
</svg>