<svg width="49" height="49" viewBox="0 0 49 49" fill="none" xmlns="http://www.w3.org/2000/svg">
<rect width="49" height="49" rx="24.5" fill="#754B47"/>
<g transform="translate(-6, 0)">
    <path d="M43.368 19.6161V18.6368C43.368 18.4576 43.5156 18.3111 43.6964 18.3111H46.0259C46.5636 18.3111 47 17.8783 47 17.345V16.2695C47 15.8695 46.751 15.5088 46.3719 15.3668L32.6945 10.219C31.9254 9.9283 31.0746 9.9283 30.3033 10.219L16.6281 15.369C16.249 15.511 16 15.8695 16 16.2717V17.3472C16 17.8805 16.4364 18.3111 16.9741 18.3111H19.3036C19.4844 18.3111 19.632 18.4576 19.632 18.6368V19.6161C19.632 19.7954 19.7797 19.9418 19.9604 19.9418H20.518C20.6987 19.9418 20.8464 20.0883 20.8464 20.2675V32.1784C20.8464 32.3576 20.6987 32.5041 20.518 32.5041H19.9604C19.7797 32.5041 19.632 32.6505 19.632 32.8298V33.7872C19.632 33.9664 19.4844 34.1129 19.3036 34.1129H16.9587C16.4298 34.1129 16 34.5391 16 35.0637V36.0496C16 36.5742 16.4298 37.0004 16.9587 37.0004H46.0391C46.568 37.0004 46.9978 36.5742 46.9978 36.0496V35.0637C46.9978 34.5391 46.568 34.1129 46.0391 34.1129H43.6942C43.5134 34.1129 43.3658 33.9664 43.3658 33.7872V32.8298C43.3658 32.6505 43.2181 32.5041 43.0374 32.5041H42.4798C42.2991 32.5041 42.1514 32.3576 42.1514 32.1784V20.2675C42.1514 20.0883 42.2991 19.9418 42.4798 19.9418H43.0374C43.2181 19.9418 43.3658 19.7954 43.3658 19.6161H43.368ZM24.3131 32.1784V20.2675C24.3131 20.0883 24.4608 19.9418 24.6415 19.9418H25.1991C25.3798 19.9418 25.5274 19.7954 25.5274 19.6161V18.6368C25.5274 18.4576 25.6751 18.3111 25.8558 18.3111H28.225C28.4057 18.3111 28.5534 18.4576 28.5534 18.6368V19.6161C28.5534 19.7954 28.7011 19.9418 28.8818 19.9418H29.4394C29.6201 19.9418 29.7677 20.0883 29.7677 20.2675V32.1784C29.7677 32.3576 29.6201 32.5041 29.4394 32.5041H28.8818C28.7011 32.5041 28.5534 32.6505 28.5534 32.8298V33.7872C28.5534 33.9664 28.4057 34.1129 28.225 34.1129H25.8558C25.6751 34.1129 25.5274 33.9664 25.5274 33.7872V32.8298C25.5274 32.6505 25.3798 32.5041 25.1991 32.5041H24.6415C24.4608 32.5041 24.3131 32.3576 24.3131 32.1784ZM34.4466 33.7872V32.8298C34.4466 32.6505 34.2989 32.5041 34.1182 32.5041H33.5606C33.3799 32.5041 33.2323 32.3576 33.2323 32.1784V20.2675C33.2323 20.0883 33.3799 19.9418 33.5606 19.9418H34.1182C34.2989 19.9418 34.4466 19.7954 34.4466 19.6161V18.6368C34.4466 18.4576 34.5943 18.3111 34.775 18.3111H37.1442C37.3249 18.3111 37.4726 18.4576 37.4726 18.6368V19.6161C37.4726 19.7954 37.6202 19.9418 37.8009 19.9418H38.3585C38.5392 19.9418 38.6869 20.0883 38.6869 20.2675V32.1784C38.6869 32.3576 38.5392 32.5041 38.3585 32.5041H37.8009C37.6202 32.5041 37.4726 32.6505 37.4726 32.8298V33.7872C37.4726 33.9664 37.3249 34.1129 37.1442 34.1129H34.775C34.5943 34.1129 34.4466 33.9664 34.4466 33.7872Z" fill="#F2F4F3"/>
</g>
</svg>