<svg width="49" height="49" viewBox="0 0 49 49" fill="none" xmlns="http://www.w3.org/2000/svg">
<rect width="49" height="49" rx="24.5" fill="#E6C150"/>
<g transform="translate(-6, 0)">
    <path d="M26.2 19.4L19.96 18.64C20.76 12.72 24.8 9.8 30.76 9.8C36.64 9.8 41.12 12.76 41.12 18.12C41.12 22.08 38.88 23.56 36.8 24.8C34.36 26.28 33.52 27.28 33.52 29.36V29.56H27.68V28.32C27.68 24.92 28.96 23.28 32.08 21.36C33.52 20.48 34.44 19.56 34.44 17.8C34.44 16 33.08 14.8 30.72 14.8C28.36 14.8 26.68 16.32 26.2 19.4ZM27.08 32.4H34.08V39H27.08V32.4Z" fill="#F2F4F3"/>
</g>
</svg>