<svg width="49" height="49" viewBox="0 0 49 49" fill="none" xmlns="http://www.w3.org/2000/svg">
<rect width="49" height="49" rx="24.5" fill="#1D34FF"/>
<g transform="translate(-6, 0)">
    <path d="M33.4658 20.5689L36.0491 33.8263C36.0863 34.0222 36.0334 34.2239 35.9002 34.3767L32.2652 38.5621L32.0517 38.7853C31.7677 39.0811 31.2781 39.0693 31.0098 38.7618L27.1612 34.3453C27.0281 34.1926 26.9732 33.9889 27.0124 33.793L29.6212 20.5905C29.6819 20.2791 29.9659 20.0519 30.2949 20.048L32.7764 20.0245C33.1132 20.0205 33.4031 20.2497 33.4658 20.5689Z" fill="#F2F4F3"/>
    <path d="M35.1932 13.9009L33.5598 18.057C33.4599 18.3116 33.2073 18.482 32.9233 18.4878L30.244 18.5348C29.9541 18.5407 29.6936 18.3723 29.5859 18.1138L27.8585 13.9107C27.6783 13.474 28.0132 13 28.5028 13H34.543C35.0287 13 35.3636 13.4661 35.1913 13.9009H35.1932Z" fill="#F2F4F3"/>
</g>
</svg>