<svg width="49" height="49" viewBox="0 0 49 49" fill="none" xmlns="http://www.w3.org/2000/svg">
<rect width="49" height="49" rx="24.5" fill="#FF69A0"/>
<g transform="translate(-6, 0)">
    <path d="M35.0582 19.1848C35.0201 19.6295 35.3925 20.0116 35.8642 20.0116H40.6982C41.1827 20.0569 41.2673 20.113 41.5529 20.275C42.5578 20.8427 43.1163 21.9156 42.9809 23.0166C42.6149 25.9784 42.2912 28.9748 41.7877 31.9172C41.5381 33.3787 40.8971 34.825 39.0925 34.9481C38.35 34.9999 37.5863 35.0064 36.8162 34.9977C33.2939 34.9503 29.799 34.3955 26.4438 33.3787C25.6695 33.1434 25.147 32.4634 25.147 31.6927L25.1618 23.9449C25.1639 22.3344 25.788 20.7801 26.9134 19.5734L26.9304 19.5539C28.7603 17.5959 30.7383 15.4113 32.6613 13.559C32.9406 13.2892 33.1437 13.0452 33.5795 13.0064C34.1232 12.9589 34.6816 13.2287 35.0434 13.6367C35.2846 13.9087 35.4094 14.2585 35.4052 14.6147C35.3861 16.1409 35.1873 17.6628 35.0561 19.1848H35.0582Z" fill="#F2F4F3"/>
    <path d="M23.9624 22.6019V32.0487C23.9624 32.5819 23.5054 33.0158 22.9427 33.0158H21.0197C20.457 33.0136 20 32.5819 20 32.0487V22.6019C20 22.0687 20.457 21.6348 21.0197 21.6348H22.9427C23.5054 21.6348 23.9624 22.0665 23.9624 22.6019Z" fill="#F2F4F3"/>
</g>
</svg>