<svg width="49" height="49" viewBox="0 0 49 49" fill="none" xmlns="http://www.w3.org/2000/svg">
<rect width="49" height="49" rx="24.5" fill="#CC1F1F"/>
<g transform="translate(-6, 0)">
    <path d="M43.7739 28.6783C43.7739 28.6783 43.7481 28.7041 43.7351 28.7202L33.2402 39.1234L32.8747 39.4843C32.4735 39.8097 31.9818 39.9998 31.448 39.9998C30.8624 39.9998 30.3221 39.771 29.9048 39.3876L29.7527 39.2362C29.7527 39.2362 29.7398 39.2233 29.7333 39.2136L19.1641 28.6042C19.1641 28.6042 19.1382 28.5784 19.1252 28.5623C14.2887 22.8662 18.2129 14.0642 25.767 13.9997C27.4558 13.9869 29.0669 14.4991 30.4839 15.3626C31.105 15.7395 31.8879 15.7685 32.5091 15.3883C33.6996 14.6634 35.0455 14.1447 36.4334 14.0513C44.5019 13.5004 48.9599 22.631 43.7739 28.6783Z" fill="#F2F4F3"/>
</g>
</svg>