<svg width="49" height="49" viewBox="0 0 49 49" fill="none" xmlns="http://www.w3.org/2000/svg">
<rect width="49" height="49" rx="24.5" fill="#4B4B4B"/>
<g transform="translate(-7, 0)">
    <path d="M36.5667 33.5898V32.9174C36.5667 32.2176 36.0644 31.6278 35.387 31.5216C31.6498 30.9397 28.7766 28.0655 28.7766 24.0865C28.7766 20.1075 31.4188 17.074 34.9328 16.3034C35.4755 16.1835 35.9874 16.6121 35.9874 17.1802V18.7176C35.9874 18.9712 35.7873 19.1756 35.539 19.1756H35.3023C35.0541 19.1756 34.8539 19.3801 34.8539 19.6337V23.6697C34.8539 23.9233 35.0541 24.1278 35.3023 24.1278H41.2834C41.5317 24.1278 41.7318 23.9233 41.7318 23.6697V19.6337C41.7318 19.3801 41.5317 19.1756 41.2834 19.1756C41.0352 19.1756 40.835 18.9712 40.835 18.7176V10.2444C40.8369 9.55636 40.2923 9 39.6188 9H37.2075C36.5339 9 35.9893 9.55636 35.9893 10.2444C35.9893 10.7634 35.6083 11.2038 35.1041 11.2628C28.8209 12.0079 23.929 17.4751 23.929 24.0885C23.929 27.7372 25.4185 30.6035 27.8086 32.9528C28.2127 33.3499 27.9433 34.0478 27.3814 34.0478H22.6646C21.7448 34.0478 21 34.8087 21 35.7484V37.2975C21 38.2372 21.7448 38.998 22.6646 38.998H41.3335C42.2533 38.998 42.9981 38.2372 42.9981 37.2975V35.7484C42.9981 34.8087 42.2533 34.0478 41.3335 34.0478H37.015C36.7668 34.0478 36.5667 33.8434 36.5667 33.5898Z" fill="#F2F4F3"/>
</g>
</svg>