<svg width="49" height="49" viewBox="0 0 49 49" fill="none" xmlns="http://www.w3.org/2000/svg">
<rect width="49" height="49" rx="24.5" fill="#D55C1F"/>
<g transform="translate(-7, 0)">
    <path d="M48.8843 20.4135C48.8553 20.307 48.8264 20.2005 48.7942 20.0939C48.7652 19.9874 48.733 19.8809 48.6976 19.7777C48.6719 19.6937 48.6462 19.6131 48.6172 19.5291C48.5818 19.4226 48.5432 19.3161 48.5046 19.2064C48.4273 18.9901 48.3437 18.7771 48.2568 18.5609C48.2117 18.4512 48.1667 18.3446 48.1216 18.2381C48.0251 18.0122 47.9189 17.7895 47.8094 17.5636C47.7322 17.4022 47.6485 17.2408 47.5649 17.0795C47.5423 17.0375 47.5198 16.9956 47.4941 16.9504C47.4394 16.8439 47.3782 16.7374 47.3171 16.6308C47.1401 16.3081 46.9438 15.9886 46.7378 15.6691C46.6702 15.5625 46.5994 15.456 46.5254 15.3495C46.3838 15.1365 46.2358 14.9267 46.0781 14.7137C46.0009 14.6072 45.9204 14.5007 45.84 14.3974C45.5182 13.9746 45.1706 13.5518 44.7973 13.129C44.6364 12.945 44.4691 12.7643 44.2985 12.5803C44.276 12.5545 44.2502 12.5255 44.2213 12.4997C44.1215 12.3931 44.0217 12.2899 43.9188 12.1834L43.6066 11.8703C43.5004 11.767 43.3942 11.6605 43.2848 11.5572C43.1754 11.4507 43.066 11.3474 42.9533 11.2442C42.8729 11.1699 42.7956 11.0989 42.7152 11.0279C42.5318 10.8859 42.2582 11.0182 42.2582 11.2571V14.0489C42.2582 14.4523 41.9621 14.7879 41.5695 14.8428C41.5631 14.846 41.5567 14.846 41.5502 14.846L35.4069 15.0849C35.0303 15.0849 34.6667 14.917 34.4221 14.6233L30.879 10.2501C30.85 10.2146 30.8275 10.1791 30.805 10.1404C30.7889 10.1145 30.776 10.0855 30.7663 10.0564C30.7599 10.0371 30.7535 10.0145 30.747 9.99189C30.747 9.99189 30.7406 9.98866 30.7438 9.98221C30.7438 9.97898 30.7438 9.97575 30.7406 9.97252V9.96607H30.7374C30.7309 9.9467 30.7277 9.92411 30.7277 9.90152C30.7245 9.89184 30.7245 9.88215 30.7245 9.87247C30.7213 9.87247 30.7213 9.86279 30.7213 9.85633C30.7181 9.85633 30.7181 9.84988 30.7181 9.84988C30.7149 9.8402 30.7149 9.83374 30.7181 9.82406C30.7149 9.82083 30.7149 9.8176 30.7181 9.81438C30.7181 9.79824 30.7181 9.7821 30.7181 9.76274C30.7181 9.7466 30.7181 9.73046 30.7181 9.71432C30.7213 9.6885 30.7245 9.66268 30.7309 9.63686C30.7309 9.6175 30.7342 9.60136 30.7406 9.58522C30.7438 9.56586 30.7503 9.54649 30.7567 9.53036C30.7663 9.50454 30.776 9.47872 30.7889 9.4529H30.7921C30.805 9.42385 30.8211 9.39803 30.8371 9.37221C30.85 9.34639 30.8693 9.3238 30.8886 9.3012C30.9079 9.27861 30.9305 9.25602 30.953 9.23665C30.9723 9.21729 30.9916 9.20115 31.0141 9.18501L33.447 7.41635C33.6176 7.2937 33.5371 7.02259 33.3312 7.01614C33.0769 7.00645 32.8227 7 32.5653 7C28.2079 7 24.195 8.50724 21.0283 11.0311C20.8642 11.1635 20.8803 11.4184 21.0573 11.5282L21.0895 11.5475C21.0895 11.5475 21.0959 11.5508 21.0991 11.554L22.4218 12.4028L22.6245 12.5319C22.8755 12.6933 22.9013 13.0419 22.6857 13.2452C22.631 13.2936 22.5795 13.3453 22.528 13.3969C22.3188 13.6035 22.1193 13.8294 21.9326 14.0682C21.8683 14.1521 21.8039 14.236 21.7363 14.32C21.5658 14.5523 21.4049 14.7944 21.2536 15.0429C21.0123 15.4302 20.787 15.8337 20.5843 16.2306C20.5746 16.2435 20.5682 16.2597 20.5649 16.2726C20.5295 16.3404 20.4974 16.4081 20.462 16.4792C20.1273 17.1602 19.857 17.8218 19.6542 18.364C19.6349 18.4189 19.6156 18.4737 19.5963 18.5254C19.5384 18.6835 19.4869 18.8288 19.4386 18.9579C19.4257 19.0031 19.4096 19.045 19.3968 19.087C19.3871 19.1128 19.3807 19.1386 19.371 19.1644C19.2455 19.5388 18.9559 19.839 18.5858 19.9778L15.6026 21.0945C15.6026 21.0945 15.5865 21.1009 15.5801 21.1009L15.5286 21.1203C14.8464 21.3753 14.3411 21.9756 14.2285 22.6985C14.0772 23.6506 14 24.6254 14 25.6194C14 26.2811 14.0354 26.9362 14.103 27.5785C14.1287 27.8206 14.1577 28.0626 14.1931 28.3015C14.2703 28.8405 14.5503 29.3343 14.9719 29.6828L18.4152 32.5327C18.4152 32.5327 18.4249 32.5424 18.4313 32.5456L18.7885 32.8426C19.4 33.3493 19.8023 34.0722 19.9117 34.8597L20.1627 36.6768L20.1756 36.7833C20.2753 37.5095 20.6261 38.1808 21.1796 38.6585C21.3115 38.7715 21.4403 38.8812 21.5754 38.9877C21.7074 39.0942 21.8393 39.2007 21.9745 39.3008C22.0871 39.3879 22.203 39.4718 22.3188 39.5557C22.6889 39.8204 23.0654 40.0625 23.4484 40.2852C23.5385 40.3368 23.6254 40.3884 23.7155 40.4369C23.8925 40.5369 24.0695 40.6305 24.2497 40.7176C24.3398 40.7661 24.4299 40.808 24.52 40.85C24.6777 40.9242 24.8354 40.9952 24.9931 41.063C25.0478 41.0888 25.1057 41.1114 25.1604 41.134C25.302 41.1921 25.4436 41.247 25.5884 41.3018C25.6013 41.3083 25.6174 41.3115 25.6302 41.318C25.7751 41.3728 25.9231 41.4245 26.0711 41.4697C26.2706 41.5374 26.4702 41.5988 26.6697 41.6568C26.7662 41.6859 26.866 41.7117 26.9625 41.7343C27.0333 41.7537 27.1009 41.7698 27.1717 41.7859C27.249 41.8085 27.3294 41.8247 27.4099 41.844C27.5225 41.8699 27.6383 41.8957 27.7574 41.915C27.854 41.9376 27.9505 41.9538 28.047 41.9699C28.7615 42.0861 29.492 41.8602 30.0487 41.389L31.5226 40.1399C31.5226 40.1399 31.5387 40.127 31.5451 40.1238L31.7607 39.9398C32.2853 39.4944 32.9321 39.2265 33.6176 39.1749L33.7592 39.1652C33.8171 39.1588 33.8718 39.1523 33.9265 39.1491L39.1141 38.7424C39.1399 38.7392 39.1624 38.7392 39.1881 38.7392L39.9508 38.6779C40.0892 38.665 40.2051 38.7876 40.189 38.9296L40.0924 39.6687C40.0602 39.943 40.3499 40.1335 40.588 40.0011C40.6717 39.9527 40.7554 39.9043 40.839 39.8527C40.9163 39.8075 40.9935 39.7623 41.0675 39.7139C42.5897 38.7779 43.8801 37.6354 44.9904 36.3347C45.0934 36.2121 45.1963 36.0894 45.2961 35.9635C45.4956 35.7215 45.6855 35.4762 45.8689 35.2244C46.0009 35.0469 46.1264 34.8694 46.2519 34.6855C46.268 34.6661 46.2808 34.65 46.2905 34.6306C46.4096 34.4563 46.5254 34.2788 46.6381 34.1013C46.6574 34.0787 46.6702 34.0561 46.6799 34.0367C46.8086 33.8366 46.9309 33.6397 47.05 33.4364C47.169 33.2363 47.2849 33.0362 47.3975 32.8296C47.4072 32.82 47.4136 32.8103 47.4168 32.8006C47.5134 32.6263 47.6099 32.4488 47.7033 32.2681C47.7322 32.2164 47.758 32.168 47.7837 32.1164C47.8481 31.9937 47.9124 31.8679 47.9736 31.7388C47.9929 31.7033 48.0122 31.6645 48.0315 31.629C48.0347 31.6193 48.0412 31.6129 48.0444 31.6032C48.0508 31.5903 48.0572 31.5806 48.0605 31.5677C48.0605 31.5677 48.0605 31.5677 48.0605 31.5645C48.0669 31.5483 48.0766 31.5354 48.083 31.5193C48.0862 31.5128 48.0894 31.5064 48.0894 31.4999C48.2246 31.1901 47.8899 30.8738 47.5874 31.0352L44.8134 32.5908L44.7587 32.6231C44.3693 32.8426 43.8769 32.678 43.6935 32.2681L43.6677 32.21L42.1263 28.734L42.0748 28.6178C41.9879 28.4209 41.9879 28.1982 42.0748 28.0013L42.1263 27.8851L45.1931 20.946C45.3379 20.6136 45.6919 20.4296 46.0363 20.4877C46.0717 20.4909 46.1039 20.5006 46.1393 20.5135L48.4724 21.3107C48.7556 21.4043 49.0323 21.1655 48.9969 20.8815C48.9615 20.7265 48.9229 20.5684 48.8779 20.4135H48.8843ZM35.3457 30.196L32.1115 34.182C31.4904 34.9437 30.4349 35.1889 29.5435 34.7791L25.0703 32.7199C24.269 32.3487 23.7734 31.529 23.8184 30.6446L24.1049 25.2773C24.1564 24.3123 24.8386 23.499 25.7783 23.2859L30.5733 22.1983C31.4872 21.9917 32.4333 22.4016 32.9064 23.2182L35.5356 27.7463C35.9861 28.5242 35.9121 29.4989 35.3457 30.196Z" fill="#F2F4F3"/>
</g>
</svg>